<svg width="120" height="40" viewBox="0 0 120 40" fill="none" xmlns="http://www.w3.org/2000/svg">
  <!-- Bamboo stalks -->
  <rect x="8" y="8" width="4" height="24" rx="2" fill="#22c55e"/>
  <rect x="16" y="4" width="4" height="32" rx="2" fill="#16a34a"/>
  <rect x="24" y="6" width="4" height="28" rx="2" fill="#15803d"/>
  
  <!-- Bamboo nodes -->
  <circle cx="10" cy="14" r="1.5" fill="#166534"/>
  <circle cx="10" cy="22" r="1.5" fill="#166534"/>
  <circle cx="18" cy="12" r="1.5" fill="#166534"/>
  <circle cx="18" cy="20" r="1.5" fill="#166534"/>
  <circle cx="18" cy="28" r="1.5" fill="#166534"/>
  <circle cx="26" cy="14" r="1.5" fill="#166534"/>
  <circle cx="26" cy="22" r="1.5" fill="#166534"/>
  <circle cx="26" cy="30" r="1.5" fill="#166534"/>
  
  <!-- Bamboo leaves -->
  <path d="M12 8 Q16 6 20 8 Q16 10 12 8" fill="#22c55e"/>
  <path d="M20 4 Q24 2 28 4 Q24 6 20 4" fill="#22c55e"/>
  <path d="M28 6 Q32 4 36 6 Q32 8 28 6" fill="#22c55e"/>
  
  <!-- Text -->
  <text x="42" y="16" font-family="Arial, sans-serif" font-size="12" font-weight="bold" fill="#166534">Adopt</text>
  <text x="42" y="28" font-family="Arial, sans-serif" font-size="12" font-weight="bold" fill="#22c55e">Bamboo</text>
</svg>